<svg width="57" height="63" viewBox="0 0 57 63" fill="none" xmlns="http://www.w3.org/2000/svg">
<path d="M3.0946 30.4138C3.43009 27.626 4.44959 25.1676 6.21141 22.8984C8.31929 20.1835 11.1879 18.1391 13.9619 16.1622C16.672 14.2308 19.2317 12.4066 21.0594 10.0528C21.0597 10.0525 21.0599 10.0523 21.0601 10.0519C22.282 8.47823 23.0552 6.79467 23.4114 4.92834L22.6145 4.30963C21.9355 3.78243 21.8124 2.80453 22.3396 2.12551C22.8668 1.44649 23.8447 1.3234 24.5237 1.8506L26.0443 3.03118L42.7572 16.0071L64.0321 32.5251C64.7111 33.0523 64.8342 34.0302 64.307 34.7092C63.7798 35.3883 62.8019 35.5113 62.1229 34.9842L42.8157 19.9939C42.2859 21.7592 41.4311 23.3927 40.2313 24.9381C38.1235 27.6529 35.2551 29.697 32.4811 31.6738C29.7709 33.6053 27.2109 35.4296 25.3833 37.7836C23.9774 39.5944 23.1646 41.5498 22.8984 43.7617C22.8315 44.3184 22.4703 44.7961 21.9526 45.0122C21.435 45.2282 20.8414 45.1491 20.3985 44.8052L3.6855 31.8292C3.25355 31.494 3.0292 30.9566 3.0946 30.4138ZM30.6744 29.1387C33.3847 27.2072 35.9446 25.3828 37.7722 23.029C38.9945 21.4547 39.7684 19.7712 40.1247 17.9048L26.1035 7.01861C25.5738 8.78356 24.7187 10.4163 23.5191 11.9612C23.5189 11.9615 23.5185 11.962 23.5182 11.9624C21.4104 14.6768 18.5423 16.7208 15.7686 18.6974C13.0583 20.629 10.4981 22.4536 8.67044 24.8076C7.44816 26.3819 6.67422 28.0654 6.31791 29.9317L20.3393 40.8179C20.869 39.0528 21.7245 37.4197 22.9243 35.8744C25.032 33.1596 27.9005 31.1154 30.6744 29.1387Z" fill="#EBEBEB"/>
</svg>
