<svg width="48" height="48" viewBox="0 0 48 48" fill="none" xmlns="http://www.w3.org/2000/svg">
<g clip-path="url(#clip0_401:719)">
<path d="M0.163223 11.9039L5.99063 0.861249C6.35288 0.174624 7.2031 -0.088345 7.88982 0.27353L24.0006 8.76597C24.6873 9.12794 24.9507 9.97787 24.5893 10.6649L23.1051 13.4856L28.0869 16.1045L29.5687 13.2886C29.9303 12.6017 30.7818 12.3367 31.4692 12.6997L39.2392 16.799C47.4983 21.1526 50.5112 31.5295 45.7011 39.6673L46.7571 40.7228C48.3986 42.3637 48.3991 45.0201 46.7571 46.6613C45.1196 48.298 42.4554 48.2981 40.8179 46.6613L39.7237 45.5676C34.8103 48.362 28.6679 48.5237 23.4331 45.5297C16.607 41.6245 13.7879 33.6666 15.8509 26.6668C16.5778 24.2003 15.4611 21.4834 13.0486 20.2382L0.754974 13.8063C0.0653496 13.4453 -0.200058 12.5922 0.163223 11.9039ZM42.806 44.672C43.3474 45.213 44.2279 45.213 44.7691 44.672C45.3109 44.1303 45.3111 43.2539 44.7691 42.7121L44.0461 41.9894C43.4425 42.6978 42.7834 43.3501 42.0742 43.9405L42.806 44.672ZM14.3477 17.7437C17.9019 19.5748 19.6687 23.6611 18.5485 27.4619C16.7618 33.5247 19.3446 39.9505 24.8295 43.0883C31.4689 46.886 39.8257 44.5329 43.4986 37.8551C47.1649 31.1904 44.6589 22.8351 37.9275 19.2868L31.4019 15.844L29.9212 18.6582C29.5596 19.3453 28.7094 19.6095 28.0225 19.2481L20.5514 15.3205C19.8645 14.9594 19.5996 14.1082 19.9613 13.4208L21.4464 10.5987L7.82204 3.41687L3.30929 11.9684L14.3477 17.7437Z" fill="#EBEBEB"/>
<path d="M23.2785 26.8483C25.6235 22.3035 31.264 20.5736 35.9047 23.0613C40.4929 25.5209 42.3208 31.2136 39.9796 35.7512C37.6397 40.2857 32.0042 42.0313 27.3533 39.5382C22.7652 37.0785 20.9373 31.3859 23.2785 26.8483ZM28.682 37.0593C31.9527 38.8127 35.8646 37.5928 37.4804 34.4615C39.1217 31.2806 37.8188 27.2786 34.5761 25.5403C31.3277 23.7987 27.4047 24.9851 25.7777 28.1381V28.138C24.1365 31.3189 25.4393 35.321 28.682 37.0593Z" fill="#EBEBEB"/>
<path d="M31.4247 6.7377C31.0628 7.42526 30.2124 7.68889 29.5255 7.32729C28.8382 6.9657 28.5743 6.1152 28.9359 5.42792L31.0147 1.47701C31.3764 0.789729 32.2266 0.525729 32.9139 0.887417C33.6012 1.24901 33.8651 2.09951 33.5035 2.78679L31.4247 6.7377Z" fill="#EBEBEB"/>
<path d="M37.6034 10.319L33.3583 11.2409C32.601 11.4056 31.8509 10.9253 31.6858 10.1651C31.521 9.40612 32.0026 8.65724 32.7615 8.49243L37.0066 7.57049C37.7657 7.4054 38.5143 7.88737 38.6791 8.64627C38.8439 9.40527 38.3623 10.1541 37.6034 10.319Z" fill="#EBEBEB"/>
<path d="M25.9618 7.15659C25.2438 7.45087 24.4221 7.10737 24.1277 6.38822L22.4568 2.30775C22.1625 1.58906 22.5065 0.767811 23.2252 0.47353C23.944 0.178967 24.765 0.523218 25.0593 1.24191L26.7302 5.32237C27.0245 6.04106 26.6805 6.86231 25.9618 7.15659Z" fill="#EBEBEB"/>
</g>
<defs>
<clipPath id="clip0_401:719">
<rect width="48" height="48" fill="white" transform="matrix(-1 0 0 1 48.0005 0)"/>
</clipPath>
</defs>
</svg>
